<?xml version="1.0" encoding="utf-8"?>
<!-- Generator: Adobe Illustrator 26.4.1, SVG Export Plug-In . SVG Version: 6.00 Build 0)  -->
<svg version="1.1" id="Capa_1" xmlns="http://www.w3.org/2000/svg" xmlns:xlink="http://www.w3.org/1999/xlink" x="0px" y="0px"
	 viewBox="0 0 100 100" style="enable-background:new 0 0 100 100;" xml:space="preserve">
<style type="text/css">
	.st0{fill:#FFFFFF;}
	.st1{fill-rule:evenodd;clip-rule:evenodd;}
</style>
<g>
	<path d="M73.46,41.07H42.48V27.68h30.98V41.07z M44.05,39.5h27.83V29.25H44.05V39.5z"/>
	<path d="M73.46,56.7H42.48V43.3h30.98V56.7z M44.05,55.12h27.83V44.88H44.05V55.12z"/>
	<path d="M73.46,72.32H42.48V58.93h30.98V72.32z M44.05,70.75h27.83V60.5H44.05V70.75z"/>
	<path d="M40.32,41.07H26.54V27.68h13.78V41.07z M28.12,39.5h10.63V29.25H28.12V39.5z"/>
	<path d="M40.32,56.7H26.54V43.3h13.78V56.7z M28.12,55.12h10.63V44.88H28.12V55.12z"/>
	<path d="M40.32,72.32H26.54V58.93h13.78V72.32z M28.12,70.75h10.63V60.5H28.12V70.75z"/>
</g>
</svg>
