<?xml version="1.0" encoding="utf-8"?>
<!-- Generator: Adobe Illustrator 26.4.1, SVG Export Plug-In . SVG Version: 6.00 Build 0)  -->
<svg version="1.1" id="Capa_1" xmlns="http://www.w3.org/2000/svg" xmlns:xlink="http://www.w3.org/1999/xlink" x="0px" y="0px"
	 viewBox="0 0 100 100" style="enable-background:new 0 0 100 100;" xml:space="preserve">
<style type="text/css">
	.st0{fill:#FFFFFF;}
	.st1{fill-rule:evenodd;clip-rule:evenodd;}
</style>
<g>
	<path id="XMLID_00000023966779687346807350000000876971762145490109_" d="M28,74.76c0,0.87-0.71,1.58-1.58,1.58h-1.69
		c-0.87,0-1.58-0.71-1.58-1.58v-3.5h-1.81c-0.15,0-0.29-0.02-0.44-0.04v3.55c0,2.11,1.71,3.82,3.82,3.82h1.69
		c2.11,0,3.82-1.71,3.82-3.82v-3.5H28V74.76z"/>
	<path id="XMLID_00000041984132261142720910000011446029870927733407_" d="M72.09,71.26v4.42c0,0.87-0.71,1.58-1.58,1.58h-1.69
		c-0.87,0-1.58-0.71-1.58-1.58v-4.42H65v4.42c0,2.11,1.71,3.82,3.82,3.82h1.69c2.11,0,3.82-1.71,3.82-3.82v-4.73
		c-0.39,0.19-0.83,0.32-1.29,0.32H72.09z"/>
	<path id="XMLID_00000108992651136923552210000018424560551980493739_" d="M23.15,64V51.79c0-0.89,0.67-1.61,1.49-1.61H70.6
		c0.82,0,1.49,0.72,1.49,1.61V64h0.95c0.47,0,0.9,0.12,1.29,0.32V51.79c0-2.13-1.67-3.86-3.73-3.86h-0.94v-5.67
		c0.49,0.23,1.06,0.37,1.68,0.37c1.86,0,3.31-1.2,3.31-2.73v-4.7c0-1.53-1.45-2.74-3.31-2.74c-0.62,0-1.19,0.14-1.68,0.37v-2.77
		c0-2.49-1.72-4.51-3.82-4.51H29.4c-2.11,0-3.82,2.02-3.82,4.51v2.7c-0.47-0.18-1.01-0.29-1.59-0.29c-1.96,0-3.5,1.2-3.5,2.74v4.7
		c0,1.53,1.54,2.73,3.5,2.73c0.57,0,1.11-0.11,1.59-0.29v5.59h-0.94c-2.06,0-3.73,1.73-3.73,3.86v12.26
		c0.14-0.02,0.29-0.04,0.44-0.04H23.15z M70.27,35.2c0-0.15,0.4-0.49,1.07-0.49c0.66,0,1.07,0.34,1.07,0.49v4.7
		c0,0.15-0.4,0.49-1.07,0.49c-0.66,0-1.07-0.34-1.07-0.49V35.2z M27.82,30.05c0-1.23,0.72-2.27,1.58-2.27h36.44
		c0.85,0,1.58,1.04,1.58,2.27v17.88H27.82V30.05z M25.24,39.9c-0.02,0.11-0.45,0.49-1.25,0.49c-0.81,0-1.23-0.38-1.25-0.49v-4.7
		c0.02-0.11,0.44-0.49,1.25-0.49c0.81,0,1.23,0.38,1.25,0.49V39.9z"/>
	<path id="XMLID_00000117646732051211038050000006813929165858973575_" d="M73.04,64h-0.95H23.15h-1.81c-0.15,0-0.29,0.02-0.44,0.04
		c-1.4,0.21-2.48,1.42-2.48,2.88v1.41c0,1.46,1.08,2.66,2.49,2.88c0.14,0.02,0.29,0.04,0.44,0.04h1.81H28h2.24H65h2.24h4.85h0.95
		c0.47,0,0.9-0.12,1.29-0.32c0.96-0.48,1.63-1.46,1.63-2.61v-1.41c0-1.15-0.67-2.13-1.63-2.61C73.94,64.12,73.51,64,73.04,64z
		 M74.33,68.34c0,0.71-0.58,1.28-1.28,1.28h-51.7c-0.71,0-1.28-0.57-1.28-1.28v-1.41c0-0.71,0.58-1.28,1.28-1.28h51.7
		c0.71,0,1.28,0.58,1.28,1.28V68.34z"/>
	<path id="XMLID_00000052077075213934401980000002853509254977797555_" d="M63.19,31.09H33.18c-1.42,0-2.58,1.16-2.58,2.58v8.77
		c0,1.42,1.16,2.58,2.58,2.58h30.01c1.42,0,2.58-1.16,2.58-2.58v-8.77C65.77,32.25,64.61,31.09,63.19,31.09z M64.65,42.45
		c0,0.8-0.65,1.46-1.46,1.46H33.18c-0.8,0-1.46-0.65-1.46-1.46v-8.77c0-0.8,0.66-1.46,1.46-1.46h30.01c0.8,0,1.46,0.65,1.46,1.46
		V42.45z"/>
	<path id="XMLID_00000132048534587634135640000000093061578090615458_" d="M33.22,53.73c-1.75,0-3.18,1.43-3.18,3.18
		c0,1.75,1.43,3.18,3.18,3.18c1.75,0,3.18-1.43,3.18-3.18C36.4,55.16,34.97,53.73,33.22,53.73z M33.22,58.97
		c-1.13,0-2.06-0.92-2.06-2.06c0-1.13,0.92-2.06,2.06-2.06c1.13,0,2.06,0.92,2.06,2.06C35.27,58.04,34.35,58.97,33.22,58.97z"/>
	<path id="XMLID_00000029746347675969038030000011480631742633688755_" d="M63.15,53.73c-1.75,0-3.18,1.43-3.18,3.18
		c0,1.75,1.43,3.18,3.18,3.18c1.75,0,3.18-1.43,3.18-3.18C66.33,55.16,64.9,53.73,63.15,53.73z M63.15,58.97
		c-1.14,0-2.06-0.92-2.06-2.06c0-1.13,0.92-2.06,2.06-2.06c1.13,0,2.06,0.92,2.06,2.06C65.21,58.04,64.28,58.97,63.15,58.97z"/>
</g>
</svg>
