<?xml version="1.0" encoding="utf-8"?>
<!-- Generator: Adobe Illustrator 26.4.1, SVG Export Plug-In . SVG Version: 6.00 Build 0)  -->
<svg version="1.1" id="Capa_1" xmlns="http://www.w3.org/2000/svg" xmlns:xlink="http://www.w3.org/1999/xlink" x="0px" y="0px"
	 viewBox="0 0 100 100" style="enable-background:new 0 0 100 100;" xml:space="preserve">
<style type="text/css">
	.st0{fill:#FFFFFF;}
	.st1{fill-rule:evenodd;clip-rule:evenodd;}
</style>
<g>
	<path d="M35.77,61.85c-0.17-1.77,0.3-3.22,1.55-4.38c1.01-0.93,2.22-1.3,3.57-1.3c2.37,0.01,4.74-0.01,7.11,0.01
		c1.03,0.01,1.96-0.24,2.82-0.82c1.06-0.71,2.16-1.37,3.23-2.06c1.82-1.19,3.82-1.76,5.99-1.75c3.07,0.01,6.14-0.01,9.2,0.01
		c0.49,0,0.76-0.08,0.96-0.62c0.49-1.35,1.52-2.1,2.97-2.14c1.95-0.04,3.9-0.03,5.86-0.01c1.27,0.02,2.18,0.96,2.19,2.24
		c0.01,6.56,0.01,13.11,0,19.67c0,1.3-0.95,2.24-2.25,2.26c-1.88,0.02-3.77,0.02-5.65,0c-1.28-0.02-2.25-0.62-2.94-1.7
		c-0.13-0.2-0.44-0.29-0.67-0.43c-0.02-0.01-0.05,0-0.07,0c-2.17-0.31-4.08,0.26-5.91,1.48c-1.97,1.31-4.07,2.42-6.12,3.6
		c-5,2.87-10.13,3.1-15.34,0.66c-6.95-3.26-13.88-6.57-20.82-9.87c-2.21-1.05-3.2-3.33-2.39-5.5c0.8-2.17,3.06-3.28,5.39-2.61
		c3.62,1.03,7.22,2.08,10.83,3.13C35.41,61.78,35.54,61.8,35.77,61.85z M69.91,53.8c-0.31,0-0.58,0-0.86,0
		c-2.98,0-5.95,0.03-8.92-0.02c-1.39-0.02-2.69,0.23-3.88,0.91c-1.41,0.8-2.81,1.64-4.16,2.54c-1.27,0.84-2.63,1.22-4.14,1.2
		c-2.35-0.03-4.69,0-7.04-0.01c-0.91,0-1.71,0.24-2.29,0.95c-0.69,0.85-0.84,1.81-0.39,2.81c0.47,1.05,1.33,1.59,2.49,1.6
		c3.65,0.01,7.3,0,10.95,0.01c0.88,0,1.39,0.41,1.4,1.11c0,0.69-0.51,1.12-1.39,1.12c-3.67,0-7.35,0.04-11.02-0.03
		c-0.84-0.02-1.79-0.26-2.49-0.71c-0.91-0.58-1.87-0.9-2.86-1.19c-1.22-0.36-2.45-0.71-3.68-1.07c-2.54-0.74-5.08-1.47-7.62-2.2
		c-1.39-0.4-2.46,0.05-2.88,1.19c-0.41,1.12,0.09,2.14,1.35,2.75c0.1,0.05,0.21,0.1,0.32,0.15c6.71,3.18,13.44,6.33,20.13,9.54
		c4.7,2.26,9.27,2.1,13.77-0.54c2.32-1.36,4.69-2.65,6.96-4.1c1.51-0.96,3.09-1.31,4.83-1.22c0.48,0.02,0.96,0,1.44,0
		C69.91,63.62,69.91,58.75,69.91,53.8z M78.96,70.75c0-6.6,0-13.12,0-19.71c-1.77,0-3.51,0-5.24,0c-1.19,0-1.54,0.34-1.54,1.53
		c0,4.02,0,8.04,0,12.06c0,1.6-0.01,3.21,0,4.81c0.01,0.81,0.4,1.29,1.14,1.3C75.17,70.76,77.03,70.75,78.96,70.75z"/>
	<path d="M66.57,42.42c-0.9,1.32-2.08,2.18-3.69,2.21c-1.6,0.03-2.86-0.68-3.83-2.05c-0.85,0.95-1.82,1.65-3.06,1.95
		c-1.26,0.3-2.39,0.04-3.43-0.82c-0.88,0.63-1.85,0.99-2.96,0.96c-0.19-0.01-0.44,0.28-0.58,0.49c-2.48,3.66-5.87,5.96-10.22,6.77
		c-4.55,0.85-8.58-0.42-12.09-3.29c-3.94-3.23-5.95-7.42-5.73-12.57c0.3-7.32,6.63-13.82,13.93-14.3c6.09-0.4,10.84,1.95,14.2,7.07
		c0.26,0.4,0.57,0.4,0.94,0.4c6.93-0.01,13.85-0.01,20.78-0.03c1.46,0,2.65,0.49,3.65,1.56c0.82,0.88,1.8,1.63,2.58,2.54
		c0.67,0.78,1.3,1.65,1.71,2.59c0.59,1.35,0.13,2.63-0.84,3.66c-1.25,1.34-2.54,2.66-3.89,3.9c-1.99,1.82-5.13,1.58-6.93-0.45
		C66.97,42.83,66.81,42.67,66.57,42.42z M36.37,23.96c-5.66,0.16-9.61,2.69-11.9,7.65c-2.24,4.84-1.56,9.4,1.82,13.47
		c5.8,7,16.39,6.32,20.97-1.33c0.61-1.02,1.22-1.61,2.47-1.38c0.69,0.13,1.3-0.07,1.56-0.92c0.19-0.64,0.82-0.85,1.42-0.53
		c0.38,0.2,0.7,0.53,1.02,0.82c0.92,0.85,1.77,0.92,2.74,0.14c0.43-0.34,0.81-0.76,1.18-1.17c0.77-0.85,1.81-0.91,2.64-0.12
		c0.33,0.32,0.61,0.7,0.93,1.04c1.07,1.11,2.23,1.06,3.21-0.11c1.61-1.91,2.66-1.93,4.29-0.08c1.14,1.29,2.84,1.35,4.08,0.13
		c1.04-1.03,2.08-2.06,3.11-3.11c1.11-1.13,1.17-1.82,0.11-2.99c-0.9-1-1.95-1.86-2.85-2.86c-0.74-0.82-1.57-1.19-2.69-1.18
		c-7.11,0.04-14.22,0.03-21.33,0.05c-0.68,0-1.2-0.15-1.55-0.8C45.15,26.15,41.19,24.18,36.37,23.96z"/>
	<path d="M75.59,56.51c-0.59,0-1.08-0.52-1.07-1.13c0.01-0.62,0.5-1.1,1.11-1.08c0.58,0.02,1.03,0.49,1.04,1.08
		C76.67,55.99,76.18,56.51,75.59,56.51z"/>
	<path d="M37.11,26.23c3.4,0.17,6.8,1.88,8.7,5.88c0.58,1.23,1.26,1.65,2.66,1.64c7.16-0.1,14.32-0.05,21.48-0.08
		c0.78,0,1.39,0.24,1.92,0.8c0.49,0.52,1.06,0.97,1.56,1.49c0.58,0.61,0.63,1.2,0.18,1.66c-0.45,0.47-1.04,0.48-1.69-0.01
		c-0.26-0.19-0.52-0.4-0.72-0.66c-0.63-0.83-1.42-1.07-2.47-1.06c-7.46,0.06-14.92,0.05-22.38,0.07c-0.71,0-1.18-0.26-1.5-0.91
		c-0.4-0.84-0.83-1.66-1.3-2.47c-1.97-3.38-5.98-4.96-9.74-3.84c-3.75,1.11-6.35,4.65-6.13,8.5c0.19,3.35,1.98,5.78,4.88,7.3
		c2.84,1.49,5.69,1.23,8.4-0.51c0.16-0.1,0.3-0.23,0.47-0.3c0.5-0.2,0.97-0.15,1.33,0.28c0.36,0.43,0.37,0.94,0,1.33
		c-0.36,0.38-0.79,0.73-1.25,0.98c-7.81,4.18-15.82-1.89-16.05-9.14C25.31,32.23,29.2,26.13,37.11,26.23z"/>
</g>
</svg>
