<?xml version="1.0" encoding="utf-8"?>
<!-- Generator: Adobe Illustrator 26.4.1, SVG Export Plug-In . SVG Version: 6.00 Build 0)  -->
<svg version="1.1" id="Capa_1" xmlns="http://www.w3.org/2000/svg" xmlns:xlink="http://www.w3.org/1999/xlink" x="0px" y="0px"
	 viewBox="0 0 100 100" style="enable-background:new 0 0 100 100;" xml:space="preserve">
<style type="text/css">
	.st0{fill:#FFFFFF;}
	.st1{fill-rule:evenodd;clip-rule:evenodd;}
</style>
<g>
	<path d="M61.81,55.9c0-0.43-0.02-0.83,0-1.23c0.03-0.65,0.52-1.11,1.13-1.13c0.63-0.02,1.16,0.46,1.2,1.13c0.02,0.38,0,0.77,0,1.22
		c0.76,0,1.47-0.05,2.18,0.02c0.37,0.04,0.79,0.2,1.07,0.44c0.34,0.29,0.38,0.74,0.19,1.17c-0.22,0.52-0.65,0.73-1.19,0.74
		c-1.33,0.01-2.65,0.01-3.98,0.01c-0.73,0-1.28,0.32-1.61,0.97c-0.59,1.14,0.18,2.45,1.5,2.56c0.48,0.04,0.96,0,1.43,0.02
		c2.03,0.08,3.68,1.63,3.92,3.67c0.22,1.94-1.05,3.84-2.95,4.39c-0.18,0.05-0.35,0.09-0.57,0.15c0,0.39,0.01,0.78,0,1.16
		c-0.03,0.71-0.52,1.21-1.17,1.21c-0.65,0-1.14-0.5-1.17-1.21c-0.01-0.35,0-0.7,0-1.15c-0.79,0-1.56,0.01-2.32,0
		c-0.72-0.02-1.18-0.45-1.21-1.1c-0.03-0.72,0.46-1.23,1.24-1.24c1.36-0.01,2.72,0.01,4.09-0.01c0.98-0.02,1.75-0.84,1.73-1.79
		c-0.02-0.94-0.77-1.7-1.73-1.73c-0.44-0.02-0.88,0-1.32-0.01c-1.97-0.05-3.65-1.52-3.96-3.44c-0.32-1.99,0.84-3.93,2.73-4.58
		C61.27,56.04,61.51,55.99,61.81,55.9z"/>
	<path d="M78.08,60.44c-0.8-5.18-4.33-9.41-8.89-11.46v-5.57c0-0.42-0.15-0.84-0.43-1.16l-0.45-0.52c0-0.01-0.01-0.02-0.01-0.03
		c-0.1-0.21-0.28-0.39-0.45-0.55c-0.07-0.06-0.14-0.13-0.2-0.19l-0.07-0.09l-0.01,0.01c-1-0.95-2.01-1.89-3.03-2.82
		c-0.28-0.26-0.4-0.51-0.4-0.9c0.01-3.83,0.01-7.66,0.01-11.49c0-1.22-0.38-1.6-1.63-1.6c-1.92,0-3.83,0-5.75,0
		c-1.86,0-2.05,0.19-2.05,2.06c0,0.89,0,1.78,0,2.79c-0.24-0.21-0.38-0.32-0.51-0.44c-2.24-2.08-4.48-4.15-6.73-6.23
		c-0.77-0.71-1.28-0.7-2.05,0.01C37.97,29.19,30.49,36.13,23,43.06c-0.55,0.51-1.05,1.03-1.28,1.75c0,0.33,0,0.66,0,0.99
		c0.45,1.25,1.32,1.9,2.67,1.85c0.5-0.02,0.99,0,1.49,0c0.95,0,1.9,0,2.91,0c0,0.28,0,0.49,0,0.71c0,5.16,0,10.31,0,15.47
		c0,3.02,1.99,5.03,5.01,5.03c2.52,0.01,5.05,0,7.57,0c0.17,0,5.48,0,7.46-0.03c1.75,4.2,5.35,7.53,9.83,8.8
		c1,0.28,2.04,0.43,3.06,0.64c0.85,0,1.69,0,2.54,0c0.52-0.09,1.05-0.17,1.57-0.27C74.08,76.37,79.37,68.78,78.08,60.44z
		 M41.31,66.49c-2.52,0-5.05,0.02-7.57-0.02c-0.53-0.01-1.1-0.16-1.56-0.42c-0.8-0.46-1.04-1.28-1.04-2.18
		c0.01-5.69,0-11.38,0-17.07c0-1.14-0.39-1.52-1.53-1.52c-1.62,0-3.24,0-4.86-0.01c-0.17,0-0.34-0.02-0.62-0.04
		c7.5-6.96,14.92-13.84,22.34-20.72c0.35,0.32,0.63,0.58,0.92,0.84c2.54,2.35,5.08,4.71,7.61,7.06c0.41,0.38,0.86,0.51,1.37,0.3
		c0.51-0.22,0.72-0.65,0.71-1.2c-0.01-0.48,0-0.96,0-1.44c0-1.19,0-2.38,0-3.6c1.59,0,3.13,0,4.72,0c0,0.25,0,0.47,0,0.68
		c0,3.57-0.01,7.14,0.01,10.72c0,0.38,0.09,0.87,0.33,1.11c1.23,1.21,2.49,2.38,3.76,3.55l0,0l0.01,0.01
		c0.17,0.15,0.33,0.3,0.5,0.46c0.22,0.27,0.35,0.6,0.36,0.95l0.11,4.2c-2-0.54-4.13-0.69-6.27-0.33
		c-8.25,1.37-13.83,8.78-12.84,17.05c0.07,0.56,0.17,1.1,0.29,1.64C46.41,66.49,41.49,66.49,41.31,66.49z M62.97,75.94
		c-7.16-0.01-12.98-5.87-12.96-13.03c0.03-7.13,5.87-12.92,13.03-12.9c7.11,0.02,12.92,5.86,12.91,12.97
		C75.94,70.11,70.09,75.95,62.97,75.94z"/>
</g>
</svg>
