<?xml version="1.0" encoding="utf-8"?>
<!-- Generator: Adobe Illustrator 26.4.1, SVG Export Plug-In . SVG Version: 6.00 Build 0)  -->
<svg version="1.1" id="Capa_1" xmlns="http://www.w3.org/2000/svg" xmlns:xlink="http://www.w3.org/1999/xlink" x="0px" y="0px"
	 viewBox="0 0 100 100" style="enable-background:new 0 0 100 100;" xml:space="preserve">
<style type="text/css">
	.st0{fill:#FFFFFF;}
	.st1{fill-rule:evenodd;clip-rule:evenodd;}
</style>
<g>
	<path d="M21.73,50c0-8.9,0-17.8,0-26.69c0-1.3,0.28-1.57,1.56-1.57c12.93,0,25.86,0,38.79,0c1.21,0,1.52,0.3,1.52,1.49
		c0,5.91-0.04,11.82,0.03,17.73c0.01,1.13,0.43,2.25,0.69,3.37c0.03,0.13,0.24,0.22,0.38,0.31c1.19,0.76,2.23,0.63,3.41-0.2
		c1.83-1.28,1.76-1.23,3.35,0.38c1.1,1.12,2.22,2.22,3.33,3.33c0.57,0.57,0.61,0.94,0.21,1.63c-0.44,0.75-0.91,1.49-1.33,2.25
		c-0.1,0.19-0.05,0.47-0.05,0.71c0,0.06,0.06,0.12,0.07,0.18c0.23,1.38,1.2,1.8,2.44,2.04c2.36,0.45,2.12,0.55,2.12,2.7
		c0,1.55,0,3.1,0,4.65c0,0.84-0.22,1.12-1.04,1.33c-0.82,0.22-1.65,0.39-2.46,0.64c-0.22,0.07-0.43,0.3-0.58,0.5
		c-0.8,1.17-0.56,2.2,0.23,3.34c1.27,1.84,1.21,1.77-0.4,3.35c-1.1,1.09-2.19,2.19-3.29,3.28c-0.63,0.63-0.97,0.67-1.73,0.21
		c-0.67-0.4-1.36-0.78-2.01-1.22c-0.38-0.25-0.67-0.17-1.08-0.07c-1.3,0.31-1.89,1.12-2,2.41c-0.04,0.43-0.19,0.85-0.3,1.27
		c-0.16,0.61-0.55,0.92-1.18,0.9c-0.13,0-0.26,0-0.39,0c-12.91,0-25.82,0-38.73,0c-1.29,0-1.57-0.28-1.57-1.58
		C21.73,67.79,21.73,58.9,21.73,50z M23.85,76.13c10.38,0,20.7,0,31.02,0c-0.1-1.12-0.34-2.1-1.66-2.3
		c-0.17-0.03-0.31-0.18-0.48-0.19c-0.23-0.03-0.52-0.06-0.71,0.05c-0.77,0.41-1.5,0.89-2.25,1.33c-0.69,0.41-1.05,0.36-1.63-0.21
		c-1.11-1.11-2.22-2.22-3.33-3.33c-1.59-1.58-1.69-1.48-0.39-3.35c0.79-1.15,1.02-2.18,0.22-3.34c-0.14-0.21-0.35-0.44-0.58-0.51
		c-0.81-0.25-1.64-0.43-2.46-0.64c-0.82-0.21-1.03-0.49-1.04-1.33c0-1.57,0.01-3.14,0-4.71c-0.01-2.18-0.12-2.22,2.06-2.6
		c1.4-0.25,2.29-0.85,2.57-2.25c0.04-0.23,0.06-0.52-0.05-0.71c-0.42-0.77-0.89-1.5-1.33-2.25c-0.41-0.69-0.36-1.05,0.21-1.62
		c1.12-1.13,2.25-2.25,3.37-3.38c1.49-1.49,1.54-1.57,3.25-0.38c1.15,0.8,2.2,1.08,3.4,0.26c0.21-0.14,0.43-0.35,0.5-0.58
		c0.25-0.83,0.44-1.69,0.66-2.53c0.19-0.73,0.49-0.97,1.26-0.97c1.46-0.01,2.92,0,4.38,0c0.21,0,0.41,0,0.62,0
		c0-5.63,0-11.16,0-16.71c-12.56,0-25.08,0-37.63,0C23.85,41.29,23.85,58.69,23.85,76.13z M42.69,61.74
		c0.91,0.23,1.77,0.48,2.65,0.67c0.61,0.13,0.91,0.49,1.11,1.06c0.27,0.78,0.58,1.55,0.94,2.29c0.27,0.55,0.28,1.02-0.05,1.53
		c-0.49,0.77-0.94,1.55-1.35,2.24c1.14,1.14,2.22,2.22,3.32,3.32c0.73-0.44,1.52-0.89,2.3-1.38c0.47-0.3,0.91-0.29,1.41-0.05
		c0.79,0.37,1.59,0.7,2.41,0.99c0.54,0.2,0.87,0.51,1,1.09c0.19,0.89,0.44,1.76,0.67,2.65c1.56,0,3.09,0,4.64,0
		c0.23-0.9,0.48-1.77,0.67-2.66c0.13-0.58,0.46-0.89,1-1.08c0.8-0.29,1.59-0.59,2.35-0.97c0.55-0.27,1.02-0.26,1.53,0.06
		c0.75,0.48,1.52,0.92,2.22,1.34c1.13-1.12,2.22-2.21,3.34-3.31c-0.44-0.73-0.88-1.5-1.36-2.25c-0.31-0.49-0.33-0.94-0.07-1.47
		c0.38-0.78,0.7-1.59,0.99-2.41c0.2-0.55,0.52-0.86,1.1-0.98c0.89-0.19,1.76-0.44,2.63-0.66c0-1.58,0-3.1,0-4.65
		c-0.88-0.23-1.74-0.47-2.61-0.66c-0.61-0.13-0.94-0.46-1.14-1.03c-0.28-0.8-0.59-1.59-0.97-2.35c-0.27-0.56-0.24-1.02,0.08-1.53
		c0.48-0.75,0.92-1.52,1.32-2.19c-1.13-1.14-2.22-2.23-3.32-3.33c-0.74,0.44-1.53,0.9-2.3,1.38c-0.45,0.28-0.87,0.28-1.36,0.05
		c-0.81-0.38-1.64-0.71-2.47-1.02c-0.52-0.19-0.84-0.5-0.96-1.04c-0.21-0.9-0.45-1.8-0.68-2.68c-1.59,0-3.11,0-4.65,0
		c-0.23,0.91-0.47,1.8-0.67,2.69c-0.12,0.55-0.45,0.85-0.97,1.04c-0.82,0.3-1.63,0.62-2.41,0.99c-0.53,0.25-0.98,0.25-1.47-0.07
		c-0.77-0.49-1.56-0.94-2.27-1.37c-1.13,1.13-2.2,2.2-3.31,3.32c0.43,0.71,0.87,1.48,1.35,2.23c0.33,0.51,0.34,0.98,0.07,1.53
		c-0.37,0.76-0.68,1.55-0.97,2.35c-0.19,0.54-0.5,0.88-1.08,1.01c-0.89,0.2-1.77,0.44-2.67,0.67
		C42.69,58.65,42.69,60.17,42.69,61.74z"/>
	<path d="M42.6,29.06c-5.04,0-10.08,0-15.11,0c-0.22,0-0.44,0.02-0.65-0.02c-0.56-0.1-0.9-0.45-0.9-1.03c0-0.58,0.34-0.93,0.9-1.03
		c0.19-0.04,0.39-0.02,0.59-0.02c10.16,0,20.32,0,30.49,0c0.2,0,0.4-0.02,0.59,0.02c0.56,0.1,0.9,0.45,0.9,1.03
		c0,0.58-0.34,0.93-0.9,1.03c-0.21,0.04-0.43,0.02-0.65,0.02C52.77,29.06,47.68,29.06,42.6,29.06z"/>
	<path d="M35.8,35.34c-2.79,0-5.58,0-8.37,0c-0.2,0-0.4,0.02-0.59-0.02c-0.56-0.1-0.91-0.45-0.91-1.03c0-0.58,0.33-0.93,0.9-1.04
		c0.19-0.04,0.39-0.02,0.59-0.02c5.63,0,11.25,0,16.88,0c0.2,0,0.4-0.02,0.59,0.01c0.56,0.1,0.91,0.45,0.91,1.02
		c0,0.58-0.34,0.93-0.9,1.04c-0.19,0.04-0.39,0.02-0.59,0.02C41.47,35.34,38.64,35.34,35.8,35.34z"/>
	<path d="M35.87,38.48c2.81,0,5.63,0,8.44,0c0.2,0,0.4-0.02,0.59,0.02c0.56,0.11,0.9,0.46,0.9,1.03c0,0.58-0.35,0.93-0.91,1.03
		c-0.21,0.04-0.43,0.02-0.65,0.02c-5.58,0-11.17,0-16.75,0c-0.2,0-0.39,0.01-0.59-0.01c-0.58-0.06-0.97-0.5-0.97-1.04
		c0-0.55,0.4-0.97,0.98-1.03c0.17-0.02,0.35-0.01,0.52-0.01C30.24,38.48,33.06,38.48,35.87,38.48z"/>
	<path d="M35.32,45.81c-2.64,0-5.28,0-7.92,0c-0.2,0-0.4,0.02-0.59-0.02c-0.56-0.12-0.89-0.47-0.88-1.05c0.01-0.55,0.34-0.88,0.86-1
		c0.17-0.04,0.35-0.02,0.52-0.02c5.34,0,10.69,0,16.03,0c0.11,0,0.22,0,0.33,0c0.66,0.04,1.1,0.48,1.08,1.07
		c-0.01,0.57-0.44,0.99-1.07,1.02c-0.57,0.02-1.13,0.01-1.7,0.01C39.76,45.81,37.54,45.81,35.32,45.81z"/>
	<path d="M33.77,48.95c2.18,0,4.36,0,6.54,0c0.82,0,1.3,0.39,1.3,1.05c0,0.65-0.48,1.04-1.31,1.05c-4.36,0-8.72,0-13.08,0
		c-0.82,0-1.3-0.39-1.3-1.05c0-0.65,0.48-1.04,1.3-1.04C29.41,48.95,31.59,48.95,33.77,48.95z"/>
	<path d="M32.27,54.19c1.64,0,3.27,0,4.91,0c0.82,0,1.3,0.39,1.3,1.05c0,0.65-0.48,1.04-1.3,1.05c-3.31,0-6.63,0-9.94,0
		c-0.82,0-1.3-0.39-1.3-1.05c0-0.65,0.48-1.04,1.3-1.04C28.91,54.18,30.59,54.19,32.27,54.19z"/>
	<path d="M32.2,67.8c-1.66,0-3.31,0-4.97,0c-0.83,0-1.3-0.39-1.3-1.05c0-0.65,0.48-1.04,1.3-1.05c3.31,0,6.63,0,9.94,0
		c0.83,0,1.3,0.39,1.3,1.04c0,0.65-0.48,1.04-1.3,1.05C35.52,67.8,33.86,67.8,32.2,67.8z"/>
	<path d="M32.2,71.99c-1.66,0-3.31,0-4.97,0c-0.83,0-1.3-0.39-1.3-1.05c0-0.65,0.48-1.04,1.3-1.05c3.31,0,6.63,0,9.94,0
		c0.83,0,1.3,0.39,1.3,1.04c0,0.65-0.48,1.04-1.3,1.05C35.52,71.99,33.86,71.99,32.2,71.99z"/>
	<path d="M52.08,34.93c1.07-1.08,2.08-2.09,3.1-3.1c0.15-0.15,0.3-0.32,0.47-0.45c0.47-0.34,0.95-0.32,1.36,0.09
		c0.41,0.41,0.45,0.9,0.09,1.36c-0.3,0.37-0.66,0.69-0.99,1.03c-1.01,1.02-2.03,2.03-3.05,3.05c-0.73,0.72-1.2,0.72-1.94-0.02
		c-0.56-0.55-1.11-1.1-1.66-1.66c-0.59-0.59-0.66-1.19-0.2-1.66c0.47-0.49,1.08-0.42,1.7,0.2C51.32,34.13,51.67,34.51,52.08,34.93z"
		/>
	<path d="M67.79,59.44c-0.01,4.6-3.77,8.36-8.37,8.36c-4.63,0-8.39-3.79-8.38-8.42c0.02-4.59,3.8-8.34,8.41-8.33
		C64.04,51.06,67.8,54.83,67.79,59.44z M53.14,59.4c-0.01,3.45,2.81,6.29,6.26,6.3c3.46,0.01,6.29-2.81,6.3-6.26
		c0.01-3.46-2.81-6.29-6.26-6.3C55.98,53.13,53.15,55.95,53.14,59.4z"/>
</g>
</svg>
