<?xml version="1.0" encoding="utf-8"?>
<!-- Generator: Adobe Illustrator 26.4.1, SVG Export Plug-In . SVG Version: 6.00 Build 0)  -->
<svg version="1.1" id="Capa_1" xmlns="http://www.w3.org/2000/svg" xmlns:xlink="http://www.w3.org/1999/xlink" x="0px" y="0px"
	 viewBox="0 0 100 100" style="enable-background:new 0 0 100 100;" xml:space="preserve">
<style type="text/css">
	.st0{fill:#FFFFFF;}
	.st1{fill-rule:evenodd;clip-rule:evenodd;}
</style>
<g>
	<path d="M39.56,51.25c-3.07,0-6.13,0-9.2,0c-0.2,0-0.41,0.01-0.6-0.02c-0.42-0.06-0.65-0.35-0.68-0.75
		c-0.03-0.41,0.18-0.71,0.59-0.82c0.21-0.05,0.44-0.06,0.65-0.06c6.19,0,12.38,0,18.57,0c0.2,0,0.41,0,0.6,0.05
		c0.43,0.1,0.65,0.4,0.62,0.85c-0.03,0.42-0.27,0.67-0.69,0.74c-0.2,0.03-0.4,0.02-0.6,0.02C45.73,51.25,42.65,51.25,39.56,51.25z"
		/>
	<path d="M37.98,64.48c-2.55,0-5.11,0-7.66,0c-0.2,0-0.46,0.06-0.59-0.04c-0.26-0.19-0.6-0.46-0.62-0.72
		c-0.02-0.26,0.27-0.59,0.5-0.8c0.13-0.12,0.42-0.09,0.64-0.09c5.12,0,10.25,0,15.37,0c0.2,0,0.41,0,0.6,0.06
		c0.41,0.11,0.61,0.4,0.58,0.82c-0.02,0.42-0.26,0.68-0.67,0.75c-0.2,0.03-0.4,0.02-0.6,0.02C43.01,64.49,40.5,64.48,37.98,64.48z"
		/>
	<path d="M36.98,57.87c-2.15,0-4.3,0-6.45,0c-0.18,0-0.37,0-0.55-0.02c-0.43-0.06-0.66-0.35-0.68-0.75
		c-0.03-0.4,0.18-0.72,0.59-0.82c0.21-0.05,0.44-0.06,0.65-0.06c4.32,0,8.64,0,12.95,0c0.2,0,0.41,0,0.6,0.05
		c0.44,0.1,0.65,0.4,0.62,0.85c-0.03,0.42-0.27,0.67-0.68,0.74c-0.18,0.03-0.37,0.02-0.55,0.02C41.32,57.87,39.15,57.87,36.98,57.87
		z"/>
	<path d="M36.45,38.01c-1.97,0-3.93,0-5.9,0c-0.18,0-0.37,0.01-0.55-0.02c-0.45-0.06-0.69-0.36-0.7-0.78
		c-0.01-0.41,0.21-0.7,0.62-0.8c0.19-0.04,0.4-0.05,0.6-0.05c3.97,0,7.94,0,11.91,0c0.18,0,0.37,0,0.55,0.04
		c0.44,0.1,0.66,0.38,0.64,0.83c-0.02,0.45-0.27,0.71-0.72,0.76c-0.22,0.03-0.44,0.02-0.66,0.02
		C40.31,38.01,38.38,38.01,36.45,38.01z"/>
	<path d="M35.86,44.63c-1.91,0-3.82,0.01-5.73-0.01c-0.29,0-0.64-0.1-0.84-0.28c-0.45-0.41-0.22-1.13,0.38-1.3
		c0.21-0.06,0.44-0.06,0.65-0.06c3.73,0,7.46,0,11.18,0c0.13,0,0.26-0.01,0.39,0.01c0.56,0.05,0.89,0.38,0.86,0.87
		c-0.02,0.47-0.34,0.77-0.89,0.77C39.87,44.63,37.87,44.63,35.86,44.63C35.86,44.63,35.86,44.63,35.86,44.63z"/>
	<path d="M50.27,44.63c-1.41,0-2.83,0-4.24,0c-0.68,0-1.02-0.28-1.04-0.79c-0.01-0.54,0.36-0.85,1.04-0.86
		c2.88-0.01,5.76-0.01,8.65,0c0.78,0,1.21,0.55,0.95,1.15c-0.18,0.42-0.54,0.5-0.95,0.5C53.21,44.63,51.74,44.63,50.27,44.63z"/>
	<path d="M76.62,66.48c-1.59-1.28-3.2-2.54-4.79-3.8c-0.84-0.67-1.68-1.34-2.55-2.02c0.47-0.46,0.9-0.86,1.29-1.3
		c0.23-0.26,0.44-0.29,0.76-0.2c1.23,0.34,2.65-0.34,3.35-1.56c0.67-1.18,0.51-2.4-0.45-3.37c-2.58-2.59-5.19-5.16-7.73-7.79
		c-0.99-1.03-2.04-1.37-3.36-0.86c-0.02,0.01-0.06-0.02-0.12-0.05c0-2.25-0.02-4.51,0.01-6.77c0.01-1.35-0.46-2.45-1.42-3.4
		c-3.9-3.84-7.8-7.69-11.67-11.57c-0.91-0.91-1.83-1.74-3.13-2.03c-6.8,0-13.6,0-20.41,0c-1.02,0.24-1.99,0.58-2.81,1.29
		c-1,0.87-1.53,1.98-1.83,3.23c0,1.09,0,2.17,0,3.26c0,0.27,0,0.55,0,0.82c0,12.55,0,28.88,0,41.25c0.02,0.03,0.06,0.05,0.07,0.08
		c0.76,2.98,2.62,4.42,5.72,4.42c2.46,0,4.93,0,7.39,0c0.2,0,0.39,0,0.64,0c0,0.3-0.02,0.53,0,0.77c0.07,0.78,0.59,1.31,1.36,1.33
		c0.83,0.02,1.66,0.02,2.49,0.01l0,0h7.73v-0.01c0.67,0,1.33,0,2,0c1.89,0,3.79,0.01,5.68,0c0.9,0,1.43-0.53,1.48-1.43
		c0.01-0.18,0.02-0.35,0.02-0.55c0.56,0,1.06,0.01,1.55,0c2.5-0.06,4.63-1.89,5.02-4.36c0.11-0.67,0.05-1.36,0.11-2.03
		c0.02-0.26,0.09-0.54,0.22-0.76c0.41-0.74,0.57-1.5,0.33-2.33c-0.04-0.13-0.03-0.34,0.05-0.43c0.43-0.5,0.9-0.97,1.38-1.48
		c0.23,0.29,0.4,0.51,0.57,0.72c1.76,2.24,3.52,4.48,5.3,6.7c0.59,0.74,1.33,1.33,2.28,1.55c1.48,0.33,2.62-0.37,3.63-1.29
		C78.79,70.72,78.71,68.18,76.62,66.48z M63.35,47.44c0.59-0.58,1.17-0.61,1.72-0.06c2.66,2.67,5.32,5.34,7.97,8.02
		c0.52,0.52,0.48,1.16-0.09,1.73c-0.6,0.6-1.15,0.63-1.71,0.07c-0.68-0.68-1.36-1.36-2.03-2.04c0,0,0,0,0,0
		c-0.27-0.43-3.59-3.56-3.79-3.78c-0.67-0.75-1.41-1.44-2.13-2.16C62.74,48.65,62.76,48.03,63.35,47.44z M48.35,24.74
		c0.06-0.04,0.11-0.07,0.17-0.11c3.77,3.88,7.54,7.76,11.3,11.64c-0.06,0.01-0.13,0.02-0.19,0.02c-2.96,0-5.92,0.01-8.88,0
		c-1.52,0-2.4-0.9-2.4-2.4c0-2.9,0-5.81,0-8.71C48.35,25.03,48.35,24.88,48.35,24.74z M54.58,76.58c-0.19,0-0.39,0-0.58,0
		c-2.28,0-4.56,0-6.84,0v0l-7.57,0l0,0c-0.51,0-1.02,0-1.53,0c-0.27,0-0.53,0-0.79,0c-0.11-1.45,0.39-2,1.74-2
		c4.67,0,9.34,0,14.01,0C54.28,74.58,54.84,75.27,54.58,76.58z M41.06,70.95c3.21,0,6.42,0,9.63,0c1.31,0,1.81,0.55,1.7,1.95
		c-4.3,0-8.56,0-12.82,0C39.31,71.68,39.87,70.95,41.06,70.95z M58.7,74.45c-0.81,0.18-1.68,0.11-2.52,0.13
		c-0.09,0-0.21-0.08-0.26-0.15c-0.43-0.71-1.06-1.16-1.84-1.43c0-0.13,0-0.23,0-0.34c-0.03-2.18-1.22-3.36-3.39-3.36
		c-3.2,0-6.4,0-9.6,0c-0.29,0-0.59,0.01-0.88,0.07c-1.44,0.32-2.36,1.49-2.37,3.04c0,0.4-0.06,0.64-0.5,0.83
		c-0.42,0.18-0.81,0.52-1.1,0.88c-0.24,0.3-0.48,0.38-0.83,0.37c-2.67-0.01-5.33-0.01-8-0.01c-2.53,0-4-1.48-4-4.01
		c0-12.08,0-24.16,0-36.23c0-0.06,0-0.12,0-0.18c0-1.87,0-6.02,0-6.67c0-2.47,1.48-3.96,3.94-3.95c6.25,0.02,12.5,0.04,18.75,0.07
		c0.19,0,0.38,0.02,0.6,0.04c0,0.27,0,0.47,0,0.67c0,3.16,0,6.32,0,9.49c0,2.68,1.57,4.25,4.24,4.26c3.22,0,6.43,0,9.65,0
		c0.21,0,0.43,0,0.72,0c0,0.63,0,1.2,0,1.76c-0.03,2.88-0.06,5.76-0.08,8.65c0,0.27,0.01,0.56,0.09,0.81
		c0.11,0.31,0.04,0.49-0.18,0.72c-2.28,2.27-4.56,4.54-6.83,6.82c-0.22,0.22-0.4,0.27-0.72,0.19c-1.28-0.35-2.7,0.33-3.4,1.56
		c-0.71,1.25-0.54,2.36,0.54,3.43c2.48,2.48,4.98,4.95,7.44,7.46c0.88,0.9,1.77,1.63,3.11,1.25C61.6,72.25,60.41,74.07,58.7,74.45z
		 M61.54,68.57c-0.55,0.55-1.18,0.58-1.68,0.08c-2.65-2.65-5.3-5.3-7.95-7.94c-0.36-0.36-0.62-0.72-0.38-1.26
		c0.27-0.58,0.86-1.03,1.53-1.01c0.09,0.06,0.32,0.15,0.48,0.3c2.72,2.71,5.44,5.42,8.14,8.14C62.19,67.4,62.13,67.99,61.54,68.57z
		 M62.28,65.08c-2.28-2.28-4.62-4.62-6.91-6.92c2.39-2.39,4.8-4.8,7.26-7.26c0.35,0.35,0.72,0.73,1.1,1.11c0,0,0,0,0,0.01
		c0,0,0.01,0.01,0.01,0.01c0.18,0.18,0.37,0.37,0.56,0.55c0.05,0.07,0.14,0.15,0.27,0.25c1.04,1.03,2.33,2.37,2.69,2.72
		c0.78,0.78,1.58,1.54,2.3,2.24C67.1,60.26,64.68,62.67,62.28,65.08z M76.46,70.14c-0.36,1.06-1.59,2.06-2.56,2.08
		c-0.7,0.01-1.24-0.32-1.66-0.84c-2.01-2.53-4-5.07-6-7.62c0.63-0.64,1.23-1.23,1.87-1.88c0.15,0.12,0.32,0.24,0.49,0.37
		c2.3,1.82,4.61,3.64,6.91,5.46C76.47,68.47,76.77,69.24,76.46,70.14z"/>
</g>
</svg>
