<?xml version="1.0" encoding="utf-8"?>
<!-- Generator: Adobe Illustrator 26.4.1, SVG Export Plug-In . SVG Version: 6.00 Build 0)  -->
<svg version="1.1" id="Capa_1" xmlns="http://www.w3.org/2000/svg" xmlns:xlink="http://www.w3.org/1999/xlink" x="0px" y="0px"
	 viewBox="0 0 100 100" style="enable-background:new 0 0 100 100;" xml:space="preserve">
<style type="text/css">
	.st0{fill:#FFFFFF;}
	.st1{fill-rule:evenodd;clip-rule:evenodd;}
</style>
<g id="XMLID_00000113333369705028791070000014356854789259119294_">
	<g>
		<path id="XMLID_00000059275862950899728160000012018098964240743597_" d="M62.75,40.73c0.27-1.11,0.41-2.25,0.41-3.39
			c0-7.91-6.45-14.34-14.38-14.34S34.4,29.43,34.4,37.34c0,1.14,0.14,2.28,0.41,3.39c0.38,2.33,0.91,4.2,1.57,5.58
			c1.41,2.96,7.36,12.73,10.09,17.18c-3.69,0.47-5.4,2.05-5.4,3.54c0,1.77,2.41,3.69,7.72,3.69c5.3,0,7.72-1.91,7.72-3.69
			c0-1.49-1.71-3.07-5.4-3.54c2.73-4.45,8.68-14.22,10.09-17.18C61.84,44.93,62.37,43.06,62.75,40.73z M54.27,67.04
			c-0.15,0.42-2.01,1.47-5.49,1.47c-3.53,0-5.39-1.08-5.5-1.46c0.1-0.37,1.62-1.27,4.48-1.45c0.03,0.05,0.06,0.1,0.07,0.12
			c0.2,0.33,0.56,0.53,0.95,0.53c0.39,0,0.74-0.2,0.95-0.53c0.01-0.02,0.04-0.06,0.07-0.12C52.63,65.78,54.14,66.66,54.27,67.04z
			 M60.59,40.25c-0.01,0.03-0.01,0.06-0.02,0.09c-0.35,2.11-0.83,3.85-1.39,5.03c-1.43,2.99-7.94,13.65-10.4,17.66
			c-2.46-4.01-8.97-14.67-10.4-17.66c-0.56-1.18-1.04-2.92-1.39-5.03c-0.01-0.03-0.01-0.06-0.02-0.09c-0.24-0.95-0.35-1.93-0.35-2.9
			c0-6.69,5.45-12.13,12.16-12.13s12.16,5.44,12.16,12.13C60.94,38.32,60.82,39.29,60.59,40.25z"/>
		<path id="XMLID_00000133495114630438408310000015006383008753098669_" d="M48.78,29.28c-4.26,0-7.72,3.45-7.72,7.69
			s3.46,7.7,7.72,7.7c4.26,0,7.72-3.45,7.72-7.7S53.04,29.28,48.78,29.28z M48.78,42.45c-3.03,0-5.5-2.46-5.5-5.48
			c0-3.02,2.47-5.48,5.5-5.48s5.5,2.46,5.5,5.48C54.28,40,51.81,42.45,48.78,42.45z"/>
	</g>
</g>
</svg>
